<svg width="57" height="61" xmlns="http://www.w3.org/2000/svg"><path d="M28.3 0L.073 10.026l4.305 37.177L28.3 60.4l23.922-13.197 4.305-37.177L28.3 0z" fill="#DD0031"/><mask id="a" x="0" y="0" width="57" height="61"><path d="M28.3 0L.073 10.026l4.305 37.177L28.3 60.4l23.922-13.197 4.305-37.177L28.3 0z" fill="#fff"/></mask><g mask="url(#a)"><path d="M28.3 0v6.704-.03V60.4l23.922-13.197 4.305-37.177L28.3 0z" fill="#C3002F"/></g><g fill="#fff"><path d="M36.574 28.646l-2.708-.602 2.106 3.008v9.324l7.221-6.016V24.134l-3.31 1.203-3.31 3.309z"/><path d="M28.3 28.904h2.8L32.6 28l2.4 3.616v13.562l-1.8 2.712L31.1 50h-2.8z"/><path d="M35.972 46.09l3.911-3.91v-3.91l-3.91 3.309v4.511z"/><path d="M28.751 10.6v17.144h2.106l3.61-11.43-2.406-5.714z"/><path d="M30.857 27.744l12.938-4.813 1.805-7.519-11.433.902-3.61 11.43zm4.213-12.332l6.318-.601-4.212-4.211h-4.212z"/></g><path d="M28.3 6.674L10.595 46.085h6.589l3.55-8.818H28.3V31.83h-5.199L28.3 19.479z" fill="#fff"/></svg>