<svg width="1920" height="1080" preserveAspectRatio="none" xmlns="http://www.w3.org/2000/svg"><defs><linearGradient id="a" x2="1" gradientTransform="scale(-86.48019 86.48019) rotate(-63.886 1.799 4.453)" gradientUnits="userSpaceOnUse"><stop stop-color="#687e67" offset="0"/><stop stop-color="#687e67" offset=".529"/><stop stop-color="#83a178" offset="1"/></linearGradient><linearGradient id="b" x2="1" gradientTransform="scale(132.79816 -132.79816) rotate(-36.459 -2.712 -3.873)" gradientUnits="userSpaceOnUse"><stop stop-color="#687e67" offset="0"/><stop stop-color="#687e67" offset=".138"/><stop stop-color="#9bb48f" offset=".697"/><stop stop-color="#9bb48f" offset=".908"/><stop stop-color="#9bb48f" offset="1"/></linearGradient><linearGradient id="c" x2="1" gradientTransform="matrix(97.417 0 0 -97.417 192.862 320.348)" gradientUnits="userSpaceOnUse"><stop stop-color="#9bb48f" offset="0"/><stop stop-color="#9bb48f" offset=".092"/><stop stop-color="#9bb48f" offset=".303"/><stop stop-color="#687e67" offset=".862"/><stop stop-color="#687e67" offset="1"/></linearGradient></defs><path d="M0 1080h1280L640 0H0z" fill="#f29111" opacity=".35"/><path d="M1920 0H640l640 1080h640z" fill="#393" opacity=".35"/><path d="M469.252 891.938c-2.338 0-4.663-.61-6.709-1.795l-21.355-12.636c-3.188-1.784-1.632-2.416-.58-2.783 4.254-1.476 5.116-1.817 9.656-4.391.473-.268 1.1-.165 1.589.121l16.406 9.74c.594.33 1.433.33 1.98 0l63.964-36.918c.595-.34.976-1.025.976-1.73v-73.817a2.06 2.06 0 00-.992-1.763L470.25 729.08a2.002 2.002 0 00-1.971 0l-63.92 36.897a2.057 2.057 0 00-1.015 1.752v73.816c0 .706.393 1.375 1.008 1.71l17.523 10.124c9.507 4.753 15.328-.846 15.328-6.47v-72.88a1.84 1.84 0 011.86-1.843h8.109c1.015 0 1.854.812 1.854 1.843v72.88c0 12.688-6.91 19.965-18.94 19.965-3.696 0-6.607 0-14.733-4.004l-16.773-9.656c-4.143-2.395-6.708-6.874-6.708-11.669V767.73c0-4.795 2.565-9.274 6.708-11.658l63.962-36.96c4.048-2.289 9.427-2.289 13.443 0l63.958 36.96a13.503 13.503 0 016.718 11.658v73.816a13.54 13.54 0 01-6.718 11.669l-63.958 36.929a13.409 13.409 0 01-6.734 1.795" fill="#689f63"/><path d="M489.01 841.083c-27.99 0-33.854-12.847-33.854-23.624 0-1.025.823-1.843 1.848-1.843h8.27c.923 0 1.693.664 1.837 1.566 1.25 8.418 4.972 12.668 21.898 12.668 13.475 0 19.212-3.049 19.212-10.198 0-4.121-1.627-7.18-22.568-9.232-17.501-1.73-28.326-5.597-28.326-19.597 0-12.906 10.878-20.603 29.117-20.603 20.491 0 30.63 7.112 31.915 22.37a1.873 1.873 0 01-.489 1.424c-.35.367-.839.59-1.354.59h-8.302c-.86 0-1.62-.61-1.795-1.445-1.991-8.859-6.835-11.69-19.975-11.69-14.712 0-16.422 5.126-16.422 8.967 0 4.652 2.017 6.005 21.882 8.634 19.657 2.599 28.994 6.278 28.994 20.094 0 13.936-11.62 21.919-31.889 21.919m77.886-78.263h2.15c1.758 0 2.088-1.238 2.088-1.956 0-1.894-1.307-1.894-2.024-1.894h-2.214zm-2.613-6.067h4.763c1.631 0 4.829 0 4.829 3.655 0 2.544-1.632 3.065-2.613 3.391 1.895.13 2.023 1.37 2.283 3.13.133 1.108.33 3.002.717 3.652h-2.931c-.07-.65-.527-4.174-.527-4.367-.19-.785-.456-1.174-1.433-1.174h-2.411v5.541h-2.677zm-5.705 6.881c0 5.742 4.632 10.374 10.305 10.374 5.741 0 10.371-4.73 10.371-10.374 0-5.738-4.694-10.304-10.371-10.304-5.61 0-10.305 4.499-10.305 10.304m22.663.036c0 6.782-5.546 12.326-12.326 12.326-6.72 0-12.329-5.479-12.329-12.326 0-6.98 5.742-12.33 12.329-12.33 6.654 0 12.326 5.35 12.326 12.33" fill="#689f63"/><path d="M271.181 603.139c0-2.948-1.551-5.657-4.096-7.117l-67.813-39.027a7.969 7.969 0 00-3.733-1.079h-.7a8.088 8.088 0 00-3.746 1.08l-67.814 39.026a8.217 8.217 0 00-4.1 7.117l.149 105.087c0 1.461.759 2.82 2.045 3.538a3.94 3.94 0 004.068 0l40.302-23.078c2.55-1.513 4.1-4.185 4.1-7.107v-49.096a8.16 8.16 0 014.09-7.09l17.16-9.884a8.152 8.152 0 014.105-1.1 8.02 8.02 0 014.074 1.1l17.155 9.883a8.167 8.167 0 014.096 7.091v49.096c0 2.922 1.572 5.61 4.105 7.107l40.291 23.078a3.987 3.987 0 004.094 0 4.093 4.093 0 002.035-3.538zm320.003 54.718c0 .73-.39 1.408-1.025 1.771l-23.292 13.427a2.053 2.053 0 01-2.045 0l-23.293-13.427a2.039 2.039 0 01-1.024-1.77V630.96c0-.73.389-1.408 1.023-1.774l23.29-13.453a2.05 2.05 0 012.052 0l23.29 13.453a2.053 2.053 0 011.024 1.774zm6.294-199.18a4.105 4.105 0 00-4.072.047 4.099 4.099 0 00-2.02 3.532v104.07a2.867 2.867 0 01-4.299 2.483l-16.986-9.785a8.19 8.19 0 00-8.185.002l-67.84 39.15a8.19 8.19 0 00-4.097 7.095v78.319a8.2 8.2 0 004.094 7.096l67.838 39.18a8.196 8.196 0 008.195 0l67.849-39.18a8.201 8.201 0 004.095-7.096V488.36a8.194 8.194 0 00-4.201-7.153zm225.897 171.581a8.19 8.19 0 004.077-7.084v-18.979a8.19 8.19 0 00-4.08-7.085l-67.404-39.135a8.192 8.192 0 00-8.208-.011l-67.816 39.151a8.189 8.189 0 00-4.095 7.093v78.298a8.19 8.19 0 004.137 7.118l67.394 38.402a8.185 8.185 0 008.033.045l40.763-22.657a4.098 4.098 0 00.051-7.133l-68.246-39.17a4.096 4.096 0 01-2.059-3.553V631.02c0-1.464.782-2.818 2.051-3.548l21.24-12.245a4.09 4.09 0 014.09 0l21.25 12.245a4.092 4.092 0 012.048 3.548v19.306a4.097 4.097 0 006.155 3.543z" fill="#fff"/><path d="M750.864 626.59a1.568 1.568 0 011.573 0l13.016 7.51c.487.281.787.8.787 1.362v15.03c0 .564-.3 1.081-.787 1.363l-13.016 7.51a1.568 1.568 0 01-1.573 0l-13.007-7.51a1.572 1.572 0 01-.786-1.362v-15.031c0-.562.3-1.081.786-1.363z" fill="#689f63"/><path d="M239.032 373.393l-42.134-24.315a5.085 5.085 0 01-2.545-4.407v-48.666c0-1.818.969-3.497 2.544-4.408l42.133-24.334a5.093 5.093 0 015.091 0l42.124 24.334a5.093 5.093 0 012.543 4.408v48.668a5.084 5.084 0 01-2.545 4.405l-42.123 24.315a5.09 5.09 0 01-5.088 0" fill="url(#a)" transform="matrix(1.60108 0 0 -1.60108 -6.195 1156.205)"/><path d="M195.4 292.914a5.09 5.09 0 011.497-1.317l36.143-20.874 6.017-3.46a5.127 5.127 0 012.936-.665c.337.028.673.09 1.001.185l44.43 81.357a5.06 5.06 0 01-1.181.938l-27.588 15.925-14.579 8.39c-.417.24-.864.413-1.323.526z" fill="url(#b)" transform="matrix(1.60108 0 0 -1.60108 -6.195 1156.205)"/><path d="M241.065 374.048a5.072 5.072 0 01-2.033-.655l-42.014-24.245 45.293-82.513a5.081 5.081 0 011.81.628l42.124 24.334a5.096 5.096 0 012.458 3.477l-46.178 78.89a5.295 5.295 0 01-1.46.084" fill="url(#c)" transform="matrix(1.60108 0 0 -1.60108 -6.195 1156.205)"/><path d="M102.241 933.33h46.48v13.664h-31.136v18.256h28.336v13.664h-28.336v19.152h31.696v13.664h-47.04zm70.784 49.728l-16.8-27.328h17.36l7.28 11.984 3.136 7.84 3.36-7.84 7.616-11.984h15.792l-16.912 26.88 18.032 29.12h-16.912l-8.624-13.44-3.36-8.288-3.584 8.288-8.624 13.44h-15.904zm46.145-27.328h10.64l1.68 6.72h.447q2.912-4.256 6.832-6.272 4.032-2.016 9.744-2.016 10.528 0 15.792 6.72 5.264 6.608 5.264 21.392 0 7.168-1.68 12.992-1.68 5.712-5.04 9.744-3.248 4.032-8.064 6.16-4.704 2.128-10.864 2.128-3.472 0-5.712-.56-2.24-.448-4.48-1.568v22.96h-14.56zm24.975 10.752q-4.256 0-6.72 2.128-2.352 2.128-3.696 6.384v23.296q1.568 1.232 3.36 2.016 1.904.672 4.928.672 6.272 0 9.408-4.368 3.136-4.48 3.136-14.672 0-7.392-2.464-11.424t-7.952-4.032zm66.416 2.912q-3.472-1.232-6.272-1.232-3.92 0-6.608 2.128-2.576 2.016-3.472 5.264v36.176h-14.56v-56h11.312l1.68 7.392h.448q1.904-4.144 5.152-6.384t7.616-2.24q2.912 0 6.608 1.232zm53.2 37.52q-3.36 2.688-9.184 4.592-5.712 1.792-12.208 1.792-13.552 0-19.824-7.84-6.272-7.952-6.272-21.728 0-14.784 7.056-22.176t19.824-7.392q4.256 0 8.288 1.12t7.168 3.696 5.04 6.944 1.904 10.864q0 2.352-.336 5.04-.224 2.688-.784 5.6h-33.6q.336 7.056 3.584 10.64 3.36 3.584 10.752 3.584 4.592 0 8.176-1.344 3.696-1.456 5.6-2.912zM342.93 965.81q-5.712 0-8.512 3.472-2.688 3.36-3.248 9.072h20.832q.448-6.048-1.904-9.296-2.24-3.248-7.168-3.248zm56.111 30.464q0-2.24-1.904-3.584t-4.704-2.464-6.16-2.24q-3.36-1.232-6.16-3.248-2.8-2.128-4.704-5.264-1.904-3.248-1.904-8.288 0-8.288 4.928-12.656t14.224-4.368q6.384 0 11.536 1.344t8.064 3.024l-3.248 10.528q-2.576-1.008-6.496-2.128t-7.952-1.12q-6.496 0-6.496 5.04 0 2.016 1.904 3.248t4.704 2.352q2.8 1.008 6.16 2.24t6.16 3.248q2.8 1.904 4.704 5.04t1.904 8.064q0 8.512-5.488 13.44-5.376 4.816-16.24 4.816-5.936 0-11.2-1.568-5.152-1.456-8.4-3.472l4.032-10.864q2.576 1.456 6.832 2.912 4.256 1.344 8.736 1.344 3.248 0 5.152-1.232 2.016-1.232 2.016-4.144zm47.264 0q0-2.24-1.904-3.584t-4.704-2.464-6.16-2.24q-3.36-1.232-6.16-3.248-2.8-2.128-4.704-5.264-1.904-3.248-1.904-8.288 0-8.288 4.928-12.656t14.224-4.368q6.384 0 11.536 1.344t8.064 3.024l-3.248 10.528q-2.576-1.008-6.496-2.128t-7.952-1.12q-6.496 0-6.496 5.04 0 2.016 1.904 3.248t4.704 2.352q2.8 1.008 6.16 2.24t6.16 3.248q2.8 1.904 4.704 5.04t1.904 8.064q0 8.512-5.488 13.44-5.376 4.816-16.24 4.816-5.936 0-11.2-1.568-5.152-1.456-8.4-3.472l4.032-10.864q2.576 1.456 6.832 2.912 4.256 1.344 8.736 1.344 3.248 0 5.152-1.232 2.016-1.232 2.016-4.144z"/><path d="M1385.9 380.693c-10.944 59.535-25.378 102.8-43.295 129.788-13.96 20.797-29.253 31.195-45.906 31.195-4.439 0-9.913-1.341-16.41-4.005v-14.352c3.174.466 6.898.715 11.18.715 7.77 0 14.03-2.153 18.794-6.45 5.704-5.236 8.559-11.12 8.559-17.642 0-4.455-2.227-13.595-6.66-27.422l-29.492-91.827h26.4l21.167 68.678c4.755 15.593 6.738 26.479 5.945 32.683 11.577-31.004 19.664-64.792 24.266-101.36h25.45M1269.33 499.467h-26.872c-.946-45.48-3.565-88.245-7.847-128.305h-.237l-40.915 128.305H1173l-40.668-128.305h-.24c-3.017 38.473-4.916 81.238-5.707 128.305h-24.503c1.584-57.24 5.546-110.9 11.888-160.988h33.307l38.77 118.289h.238l39.008-118.289h31.87c6.978 58.663 11.099 112.338 12.365 160.988" fill="#00758f"/><path d="M1743.61 499.468h-76.346V338.48h25.69v141.184h50.656v19.803m-191.954-32.204c-6.503-10.494-9.761-27.334-9.761-50.554 0-40.537 12.294-60.819 36.87-60.819 12.849 0 22.279 4.85 28.31 14.543 6.495 10.499 9.753 27.193 9.753 50.088 0 40.862-12.294 61.301-36.87 61.301-12.845 0-22.28-4.846-28.302-14.557m95.616 36.086l-29.512-14.592c2.628-2.16 5.123-4.492 7.382-7.19 12.53-14.77 18.802-36.631 18.802-65.574 0-53.26-20.853-79.903-62.556-79.903-20.455 0-36.397 6.753-47.812 20.28-12.534 14.788-18.793 36.566-18.793 65.345 0 28.298 5.546 49.057 16.646 62.244 10.114 11.92 25.409 17.888 45.885 17.888 7.639 0 14.648-.943 21.019-2.83l38.432 22.425 10.478-18.095m-143.627-48.504c0 13.653-5.003 24.861-14.976 33.63-9.98 8.732-23.39 13.109-40.18 13.109-15.706 0-30.927-5.038-45.67-15.032l6.897-13.829c12.688 6.36 24.17 9.535 34.478 9.535 9.67 0 17.239-2.158 22.714-6.42 5.463-4.295 8.738-10.284 8.738-17.88 0-9.558-6.649-17.73-18.847-24.584-11.262-6.196-33.77-19.134-33.77-19.134-12.194-8.919-18.308-18.489-18.308-34.257 0-13.041 4.56-23.582 13.666-31.602 9.128-8.036 20.903-12.054 35.324-12.054 14.905 0 28.46 3.988 40.666 11.937l-6.2 13.816c-10.446-4.44-20.746-6.67-30.902-6.67-8.24 0-14.59 1.984-19.017 5.975-4.451 3.956-7.204 9.047-7.204 15.252 0 9.534 6.794 17.804 19.337 24.791 11.402 6.2 34.46 19.388 34.46 19.388 12.544 8.903 18.794 18.395 18.794 34.029m258.314 44.606h4.257v-16.38h5.571v-3.345h-15.614v3.346h5.786zm32.393 0h4.013v-19.725h-6.035l-4.912 13.445-5.347-13.445h-5.816v19.725h3.797V484.44h.216l5.6 15.012h2.893l5.591-15.012v15.012" fill="#f29111"/><path d="M1530.116 67.42c-6.788-.102-12.707 2.462-15.764 9.974-5.24 12.65 7.76 25.093 12.224 31.515 3.295 4.467 7.567 9.533 9.884 14.583 1.36 3.308 1.752 6.816 3.115 10.31 3.1 8.558 6.004 18.093 10.087 26.073 2.126 4.085 4.452 8.368 7.167 12.046 1.567 2.152 4.273 3.112 4.858 6.624-2.707 3.886-2.918 9.723-4.469 14.59-6.98 21.981-4.27 49.211 5.629 65.353 3.096 4.862 10.48 15.562 20.373 11.468 8.73-3.495 6.789-14.583 9.309-24.302.58-2.35.192-3.893 1.353-5.447v.393c2.714 5.438 5.439 10.678 7.959 16.143 6.023 9.521 16.486 19.443 25.224 26.05 4.642 3.515 8.332 9.536 14.152 11.682v-.589h-.382c-1.169-1.745-2.91-2.527-4.465-3.883-3.49-3.503-7.36-7.786-10.087-11.674-8.145-10.889-15.332-22.955-21.719-35.402-3.113-6.044-5.824-12.65-8.348-18.677-1.16-2.323-1.161-5.835-3.105-6.999-2.918 4.275-7.175 7.974-9.306 13.21-3.689 8.374-4.075 18.68-5.442 29.384-.771.203-.382.001-.772.389-6.2-1.556-8.334-7.974-10.668-13.403-5.82-13.828-6.798-36.002-1.745-51.954 1.35-4.077 7.188-16.914 4.85-20.804-1.173-3.712-5.05-5.832-7.181-8.762-2.516-3.695-5.246-8.356-6.975-12.45-4.658-10.888-7-22.952-12.028-33.841-2.33-5.066-6.414-10.317-9.701-14.976-3.693-5.253-7.762-8.948-10.676-15.165-.961-2.145-2.32-5.65-.774-7.977.381-1.559 1.169-2.143 2.723-2.534 2.508-2.14 9.695.578 12.21 1.745 7.184 2.91 13.197 5.646 19.203 9.723 2.72 1.949 5.63 5.646 9.116 6.627h4.083c6.205 1.35 13.193.377 19.017 2.135 10.275 3.304 19.585 8.166 27.933 13.42 25.404 16.145 46.355 39.105 60.51 66.527 2.333 4.467 3.312 8.554 5.443 13.213 4.074 9.55 9.125 19.278 13.191 28.605 4.07 9.144 7.957 18.471 13.785 26.069 2.901 4.078 14.545 6.217 19.784 8.359 3.872 1.745 9.894 3.302 13.388 5.44 6.595 4.077 13.178 8.752 19.396 13.233 3.096 2.334 12.796 7.193 13.38 11.09l.004.003c-15.527-.39-27.553 1.163-37.637 5.446-2.91 1.166-7.562 1.165-7.96 4.861 1.563 1.554 1.752 4.083 3.12 6.232 2.32 3.89 6.386 9.133 10.08 11.863 4.074 3.114 8.147 6.215 12.42 8.937 7.56 4.689 16.1 7.4 23.461 12.07 4.282 2.72 8.535 6.22 12.817 9.145 2.126 1.555 3.473 4.088 6.2 5.05v-.592c-1.368-1.746-1.747-4.272-3.098-6.228-1.936-1.93-3.881-3.692-5.825-5.629-5.63-7.585-12.622-14.194-20.17-19.64-6.213-4.291-19.8-10.128-22.311-17.304 0 0-.206-.204-.396-.396 4.269-.394 9.324-1.953 13.395-3.133 6.586-1.745 12.599-1.352 19.388-3.098 3.109-.784 6.213-1.76 9.33-2.716v-1.763c-3.511-3.494-6.02-8.171-9.705-11.475-9.886-8.555-20.763-16.913-32.012-23.927-6.023-3.891-13.784-6.407-20.188-9.722-2.317-1.169-6.192-1.745-7.556-3.7-3.494-4.279-5.443-9.911-7.96-14.977-5.62-10.686-11.06-22.549-15.9-33.849-3.49-7.58-5.625-15.16-9.894-22.167-19.992-33.074-41.712-53.099-75.08-72.749-7.179-4.09-15.713-5.836-24.824-7.976-4.858-.204-9.702-.584-14.551-.775-3.11-1.367-6.22-5.067-8.93-6.817-6.915-4.374-20.643-11.94-31.957-12.109zm47.861 48.081c-3.291 0-5.614.4-7.956.978v.389h.379c1.566 3.104 4.287 5.262 6.21 7.98 1.563 3.113 2.922 6.213 4.472 9.33.19-.191.375-.393.375-.393 2.736-1.936 4.094-5.046 4.094-9.722-1.173-1.371-1.356-2.723-2.334-4.09-1.161-1.94-3.686-2.914-5.24-4.472z" fill="#00758f"/></svg>