<svg width="512" height="512" xmlns="http://www.w3.org/2000/svg"><path d="M137.1 338.838c-.574.156-1.014.656-1.34 1.108-.808 4.345-1.35 8.738-1.989 13.112-1.74 12.655-3.42 25.328-4.447 38.064-1.246 16.515-1.5 33.083-2.23 49.625-.205 3.844-.862 7.65-1.006 11.5-.282 4.724.182 9.493 1.496 14.046 2.258 8.386 6.346 16.415 12.567 22.557 5.494 5.504 12.389 9.45 19.683 12.049 9.707 3.495 19.876 5.65 30.129 6.717 6.846.479 13.717.383 20.575.35 9.878-.137 19.765-.326 29.616-1.102 7.704-.828 15.381-1.9 23.032-3.122 17.017-2.705 33.81-6.696 50.342-11.528 1.466-.397 3.265-.772 3.94-2.321.653-1.254-.15-2.911-1.515-3.233-1.412-.381-2.785.38-4.18.516-10.03 1.75-20.123 3.124-30.223 4.398-3.995.501-8.054.898-12.007 1.094-12.1.614-24.351.507-36.476.09-6.266-.232-12.446-.567-18.696-1.104-1.604-.15-3.417-.32-5.013-.508-5.9-.618-11.82-1.804-17.182-4.427-5.102-2.473-9.854-6.343-12.026-11.717-1.905-4.785-1.592-10.527 1.262-14.879 2.248-3.725 5.913-6.522 10.076-7.766 3.803-1.2 7.906-1.422 11.804-.554 6.436 1.35 12.645 3.567 18.916 5.513 18.964 6.016 38.078 11.802 57.716 15.186 4.999.838 10.002 1.687 15.04 2.24 8.4.62 16.83.637 25.249.629 7.37-.072 14.755-.12 22.101-.782 8.19-1.044 16.342-2.38 24.46-3.88 1.353-.331 2.838-.387 4.023-1.188.488-.684.926-1.565.542-2.395-.358-1.256-1.806-1.645-2.955-1.87-4.221-.795-8.6-1.326-12.769-1.998a326.232 326.232 0 01-16.385-3.018c-13.396-2.81-26.6-6.548-39.43-11.324-11.614-4.27-22.993-9.144-34.433-13.854-15.859-6.57-31.846-12.95-48.373-17.657-12.474-3.532-25.358-5.933-38.354-6.027-9.207.06-18.567 1.443-26.995 5.296-1.102.528-2.214 1.07-3.372 1.543-1.275-3.959-1.26-8.24-1.506-12.302-.564-11.527-.9-23.07-1.849-34.573-1.025-9.719-2.642-19.366-4.495-28.958-.228-.878-.266-1.858-.667-2.66-.555-.854-1.704-1.301-2.656-.886z"/><path d="M346.064 332.205c4.24 8.69 6.17 18.313 7.09 27.88.741 8.276.54 16.597.454 24.894-.096 5.567-.184 11.158-.372 16.667-.057 1.66-.123 3.322-.287 4.975-3.868-2-7.687-4.098-11.645-5.92-12.077-5.66-24.51-10.572-37.218-14.63-23.675-7.412-48.288-11.734-73.038-13.262-13.083-.775-26.225-.786-39.295.232-1.204.19-2.666.056-3.584.977-.252.504-.968.943-.577 1.538a2.56 2.56 0 001.73 1.994c2.504.887 5.202.943 7.802 1.39a595.98 595.98 0 0124.231 3.949c8.069 1.498 16.226 3.196 24.252 5.125 19.87 4.764 39.6 10.94 58.271 19.445 7.433 3.418 14.692 7.285 21.936 11.171 8.707 4.744 17.509 9.455 25.324 15.612 6.08 4.791 11.813 10.259 15.786 16.966 1.45 2.355 2.342 4.979 3.295 7.558.502 1.134.928 2.565 2.247 2.967l1.938.927c.32-1.514.72-3.023.636-4.585.174-16.84.14-33.683.244-50.524.116-26.069.473-52.137.609-78.205h-31.188l1.36 2.86zM189.205 36.725c-1.348.239-2.314 1.36-3.374 2.148-3.483 2.966-6.775 6.16-10.466 8.876-10.073 7.706-21.728 13.053-33.65 17.211-11.205 3.818-22.638 6.912-34.032 10.103-11.514 3.235-23.099 6.256-34.43 10.099-5.953 2.028-11.747 4.583-17.054 7.979-11.845 7.301-21.786 17.46-29.456 29.027-11.42 17.21-18.076 37.24-21.14 57.572-1.347 9.487-1.692 19.093-1.571 28.667.094 8.447.932 16.874 2.371 25.196L6.967 237h20.197c-.946-3.95-1.857-7.85-2.48-11.904a92.62 92.62 0 01-.657-5.016c-.587-5.874-.687-11.672-.55-17.613.272-9.492 1.085-19.007 3.071-28.307.726-3.358 1.572-6.69 2.53-9.99.158-.501.409-1.34.602-1.97 3.723-12.031 9.371-23.597 17.52-33.266a82.9 82.9 0 013.183-3.564 80.69 80.69 0 019.469-8.513c6.68-5.053 13.985-9.294 21.734-12.486 7.662-3.18 15.514-5.834 23.316-8.477 7.45-2.468 14.9-4.947 22.182-7.882 9.451-3.787 18.77-7.946 27.728-12.797 10.551-5.84 20.194-13.442 27.95-22.704 2.867-3.6 5.59-7.34 7.88-11.337.596-1.039 1.152-2.293.595-3.468-.151-.582-.933-.685-1.362-1.056l-.67.075z"/><path d="M275.96 4.02c-10.168.19-20.327 2.426-29.515 6.826-8.962 4.225-16.915 10.31-24.09 17.091-12.283 11.316-24.625 22.594-37.253 33.45C177.654 67.77 170 74.07 162.174 79.885c-6.434 4.797-13.137 9.221-19.996 13.386 6.383 4.03 12.038 9.174 16.039 14.725a207.503 207.503 0 009.017-3.44c13.226-5.392 25.9-12.055 38.16-19.36 10.59-6.215 20.934-12.83 31.336-19.346 5.058-3.118 10.337-6.31 15.926-8.623 3.934-1.631 7.892-3.247 12.028-4.3a95.291 95.291 0 012.943-.706 88.17 88.17 0 014.31-.838c1.328-.232 2.455-.384 3.805-.569a94.656 94.656 0 016.67-.626 68.68 68.68 0 0116.063.83 78.64 78.64 0 018.345 1.8 67.247 67.247 0 0113.567 5.383 92.103 92.103 0 012.8 1.557c7.057 4.198 13.755 9.17 19.149 15.406 4.718 5.467 8.986 11.34 12.629 17.578 1.64 2.834 3.103 5.762 4.47 8.735a62.735 62.735 0 0115.133-10.954c2.456-1.152 4.998-2.183 7.578-3.005-1.023-2.916-2.113-5.807-3.357-8.637-3.47-7.685-7.955-14.871-12.75-21.791-4.35-6.208-9.098-12.156-14.473-17.512-11.737-11.908-25.386-22.196-40.87-28.695-10.954-4.606-22.828-7.158-34.735-6.863zm149.741 104.699a73.359 73.359 0 00-8.553.38c.363 2.12.626 4.27.73 6.43.324 6.648-.453 13.461-2.183 19.639a52.271 52.271 0 019.99-1.686c.427-.014 1.089-.06 1.577-.07 5.467-.13 11.046.04 16.281 1.78 10.284 3.15 19.253 9.837 25.94 18.183 8.586 10.662 13.776 23.719 16.466 37.055 1.183 5.724 1.328 11.597 1.455 17.42.047 6.372-.038 12.774-.94 19.091-.438 2.69-1.13 5.54-1.76 8.29l-.41 1.769h21.7c.73-4.463 1.6-8.921 1.735-13.455.403-8.914.353-17.85-.083-26.764-.158-4.176-.763-8.317-1.57-12.412-2.8-14.797-8.206-29.258-16.974-41.58-5.925-8.359-13.175-15.89-21.864-21.394-5.707-3.637-11.882-6.514-18.24-8.811-7.457-2.673-15.389-3.864-23.297-3.865z"/><g fill="#9a2424"><path d="M138.043 340.793c-.1-.153-.293-.127-.428.056-.135.184-4.138 26.98-5.912 45.834-1.83 19.446-2.191 51.837-2.83 57.135-1.297 10.763-1.158 15.413.66 22.022 3.749 13.624 11.069 23.123 22.762 29.535 8.568 4.698 23.358 8.738 37.351 10.203 8.384.878 42.224.294 52.274-.902 26.912-3.202 46.787-7.264 72.67-14.85.604-.177 1.098-.592 1.098-.922s-.494-.457-1.098-.283c-3.148.907-25.607 4.196-37.184 5.445-19.063 2.058-62.134.868-75.867-2.095-15.119-3.263-24.547-12.12-24.584-23.094-.014-4.194 1.05-7.485 3.555-10.998 3.473-4.871 8.683-7.732 15.435-8.477 4.903-.54 9.269.36 22.77 4.7 34.576 11.111 51.277 15.245 74.5 18.439 8.21 1.13 40.567 1.116 49.588-.02 8.556-1.077 26.253-4.06 26.558-4.476.451-.613-.319-.78-10.437-2.26-19.41-2.84-38.163-7.342-54.473-13.078-10.45-3.675-15.658-5.744-41.514-16.486-37.198-15.456-58.66-21.578-79.642-22.723-11.883-.648-23.31 1.291-31.57 5.356-1.914.941-3.815 1.71-4.227 1.71-.563 0-2.008-2.409-2.496-10.13-.473-7.475-1.236-31.743-2.264-40.749-1.548-13.56-4.596-28.74-4.695-28.892z"/><path d="M347.871 331.346c3.86 7.79 6.434 18.008 7.41 30.068.439 5.419.524 12.903.291 25.912-.34 19.103-.535 21.945-1.496 21.945-.32 0-2.436-1.015-4.705-2.255-11.59-6.338-30.417-14.156-45.685-18.975-31.662-9.992-67.606-14.824-101.215-13.607-7.054.255-12.825.69-12.825.964s1.484.7 3.297.946c45.651 6.165 82.955 16.003 112.73 29.732 9.084 4.188 28.808 14.742 36.641 19.606 15.148 9.403 25.553 20.225 28.926 30.084.75 2.19 1.527 3.986 1.729 3.99.201.004.177-28.845.367-64.106l.546-64.304zM189.445 38.725c-.137-.187-2.73 1.925-5.763 4.695-8.496 7.758-17.654 13.63-29.032 18.617-10.944 4.798-19.995 7.672-51.718 16.422-30.795 8.494-37.327 10.91-47.555 17.582-24.899 16.243-42.01 46.201-47.738 83.584-1.727 11.265-2.143 28.486-.989 40.773.468 4.974 1.184 9.82 2.012 14.602H24.64c-.983-4.079-1.798-8.216-2.338-12.416-1.758-13.667-.818-34.355 2.201-48.44C30.75 145 43.573 124.73 64.257 111.303c10.722-6.96 18.293-10.125 46.98-19.633 13.326-4.416 27.684-10.44 39.797-16.695 11.328-5.85 21.058-13.334 28.94-22.256 3.796-4.298 9.934-13.366 9.472-13.994z"/><path d="M277.826 6c-19.762 0-36.223 6.885-52.57 21.986-41.962 38.764-60.532 53.97-81.207 66.494 4.976 3.391 9.406 7.456 12.865 11.819 11.004-3.907 21.94-8.75 33.332-14.82 9.058-4.827 22.24-12.68 37.262-22.198 16.87-10.687 19.858-12.287 30.533-16.35 9.992-3.8 25.334-5.732 36.022-4.533 13.846 1.554 24.413 5.44 35.548 13.07 8.174 5.604 13.014 10.293 19.463 18.864 4.927 6.547 8.597 12.58 11.895 19.658a63.11 63.11 0 0113.6-9.467 66.357 66.357 0 015.718-2.341c-1.22-3.499-2.529-6.824-3.902-9.766-5.028-10.77-14.89-25.355-23.08-34.135C330.057 19.361 303.718 6 277.826 6zm147.295 104.71a74.699 74.699 0 00-7.644.388c.19 1.469.33 2.95.402 4.431a62.907 62.907 0 01-1.606 17.334c4.137-.975 8.313-1.464 12.756-1.488 5.137-.027 9.058.325 12.194 1.096 23.576 5.796 41.232 28.047 47.015 59.252 1.49 8.042 1.6 26.817.205 35.511-.417 2.605-1.036 5.184-1.632 7.766h17.488c.344-2.144.732-4.261 1.02-6.438 1.005-7.652.87-30.697-.223-38.046-2.836-19.052-9.023-34.969-18.653-47.989-8.09-10.94-16.74-18.28-28.023-23.785-11.876-5.793-21.1-8.018-33.299-8.031z"/></g><path d="M449.768 149.438c-38.273.555-78.283 16.474-110.438 44.6-12.319 10.775-23.009 22.935-31.836 35.962h106.27c15.821-7.37 32.404-10.504 47.066-8.443 19.557 2.75 37.645-10.877 40.395-30.436 2.75-19.56-10.878-37.643-30.436-40.392a136.737 136.737 0 00-21.021-1.292z" fill="#e95353"/><path d="M330.354 204.856l.015-.012c38.109-33.334 87.253-49.525 131.46-43.309 19.558 2.75 33.184 20.834 30.434 40.393a35.622 35.622 0 01-3.925 11.967c6.774-5.494 11.576-13.454 12.886-22.773 2.75-19.56-10.876-37.644-30.434-40.393-44.207-6.215-93.351 9.974-131.46 43.308a188.964 188.964 0 00-24.98 26.52 189.875 189.875 0 0115.672-15.417c.11-.096.222-.187.332-.284z" fill="#202020" opacity=".15"/><path d="M454.652 147.03c-15.124-.295-30.292 1.816-44.857 5.868-1.015.282-2.024.583-3.033.883l-3.592 6.223c16.8-5.577 34.509-8.572 52.225-8.113 5.393.147 10.784.582 16.117 1.406 7.088 1.197 13.749 4.779 18.633 10.057 4.904 5.229 8.082 12.065 8.82 19.203.842 7.803-1.158 15.885-5.615 22.353-4.66 6.858-11.96 11.861-20.043 13.711-4.16.983-8.501 1.093-12.721.457-7.17-.949-14.46-.639-21.59.484l-1.267.182c-.474-7.014-.918-14.03-1.409-21.043-.178-1.372-1.685-2.355-3.011-1.957-1.204.286-1.993 1.576-1.78 2.781l1.408 21.23c-4.194 1.037-8.344 2.258-12.386 3.788-3.683 1.363-7.262 2.985-10.8 4.687-3.34-6.6-6.666-13.206-10.017-19.8-.669-1.21-2.434-1.57-3.521-.71-1.007.71-1.27 2.195-.625 3.233 3.04 6.016 6.08 12.032 9.123 18.047h15.094a103.149 103.149 0 015.191-1.943c10.197-3.473 21.06-5.34 31.842-4.5 2.765.204 5.5.754 8.28.765 8.081.17 16.192-2.327 22.77-7.025a38.673 38.673 0 003.938-3.211 38.584 38.584 0 008.664-11.979c.345-.734.708-1.612.97-2.287 3.36-8.713 3.4-18.674.005-27.383-3.457-8.992-10.415-16.603-19.13-20.738-3.952-1.905-8.242-3.062-12.597-3.556a138.087 138.087 0 00-15.086-1.114zm-85.045 81.35c-.674.042-1.334.347-1.75.903-.178.213-.294.46-.38.717h4.793c-.274-.311-.545-.624-.819-.936-.48-.501-1.169-.724-1.844-.683z"/><path d="M57.988 149.438a135.65 135.65 0 00-16.777 1.29c-19.56 2.75-33.186 20.833-30.436 40.393 2.75 19.56 20.838 33.186 40.395 30.436 14.895-2.094 31.766 1.196 47.812 8.82 17.27-.037 57.022-.155 100.09-.256-7.28-11.406-16.067-23.547-26.4-36.084-33.346-29.167-75.142-45.209-114.684-44.6z" fill="#e95353"/><path d="M181.646 204.856l-.015-.012c-38.108-33.334-87.253-49.525-131.46-43.309-19.558 2.75-33.184 20.834-30.434 40.393a35.622 35.622 0 003.926 11.967c-6.775-5.494-11.577-13.454-12.887-22.773-2.75-19.56 10.876-37.644 30.435-40.393 44.206-6.215 93.35 9.974 131.46 43.308a188.964 188.964 0 0124.979 26.52 189.875 189.875 0 00-15.672-15.417c-.109-.096-.222-.187-.332-.284z" fill="#202020" opacity=".15"/><path d="M57.348 147.03c-5.042.098-10.078.463-15.086 1.113-4.355.494-8.645 1.651-12.598 3.556-8.714 4.135-15.67 11.746-19.129 20.738-3.396 8.71-3.356 18.67.006 27.383a38.593 38.593 0 00.969 2.287 38.584 38.584 0 008.664 11.979 38.673 38.673 0 003.937 3.21c6.58 4.699 14.69 7.195 22.772 7.026 2.78-.01 5.514-.561 8.28-.765 10.781-.84 21.644 1.027 31.84 4.5 2.009.689 3.986 1.459 5.946 2.27 1.413.017 10.025-.018 14.188-.024 3.093-6.116 6.183-12.234 9.275-18.35.644-1.038.382-2.522-.625-3.232-1.087-.86-2.851-.501-3.521.709-3.351 6.594-6.678 13.2-10.018 19.8-3.537-1.702-7.115-3.324-10.799-4.687-4.042-1.53-8.192-2.751-12.386-3.787.468-7.077.94-14.155 1.41-21.23.212-1.206-.578-2.496-1.782-2.782-1.327-.398-2.833.585-3.011 1.957-.491 7.013-.935 14.03-1.409 21.043l-1.267-.181c-7.13-1.123-14.42-1.434-21.59-.485-4.22.636-8.562.526-12.72-.457-8.085-1.85-15.385-6.853-20.044-13.71-4.457-6.469-6.457-14.551-5.615-22.354.74-7.138 3.916-13.974 8.82-19.203 4.885-5.278 11.545-8.86 18.633-10.057 5.334-.824 10.725-1.26 16.12-1.406 17.715-.46 35.422 2.536 52.222 8.113l-3.592-6.223c-1.009-.3-2.018-.601-3.033-.883-14.565-4.052-29.733-6.163-44.857-5.869zm85.045 81.35c-.675-.04-1.365.183-1.844.684-.346.394-.69.79-1.035 1.184 1.327-.005 3.7-.007 5.068-.012-.077-.344-.206-.674-.44-.953-.415-.556-1.075-.861-1.75-.902z"/><path d="M107.336 88.453c-9.163 5.29-12.685 16.204-13.214 27.076s1.856 22.207 6.605 30.434l56.263 97.473 87.89 14.235-84.394-146.21c-4.75-8.226-13.376-15.96-23.054-20.937-9.683-4.544-20.72-7.313-30.096-2.071z" fill="#fca311"/><path d="M131.418 110.184a4.204 4.204 0 00-5.139 2.992 4.204 4.204 0 002.962 5.131 4.204 4.204 0 005.161-2.954 4.204 4.204 0 00-2.984-5.17zm12.49 56.552a4.204 4.204 0 00-5.138 2.993 4.204 4.204 0 008.122 2.176 4.204 4.204 0 00-2.984-5.169zm21.46 46.438a4.204 4.204 0 00-2.176 8.123 4.204 4.204 0 102.176-8.123zm-23.465-93.199c-7.1-.123-9.246 4.114-13.612 9.264a19.153 19.153 0 00-4.247 15.848c.413 6.804 2.555 11.5 7.157 14.829 7.1.123 9.246-4.114 13.612-9.264a19.153 19.153 0 004.247-15.848c-.413-6.804-2.555-11.499-7.157-14.829z" fill="#fec872"/><path d="M143.872 133.412a19.16 19.16 0 01-4.248 15.852c-3.216 4.718-6.057 7.444-11.117 8.205.74.556 1.761 2.368 2.69 2.448 7.344-.04 10.006-4.633 13.618-9.263a19.16 19.16 0 004.248-15.852c-.318-6.126-2.118-11.289-6.37-14.131-.704-.969-2.615-.929-2.27-.268 2.463 3.862 2.634 8.522 3.449 13.01z" fill="#ca7d02"/><path d="M404.665 88.453c9.163 5.291 12.685 16.205 13.214 27.076s-1.857 22.208-6.606 30.434l-56.263 97.473-87.89 14.235 84.394-146.21c4.75-8.226 13.376-15.96 23.055-20.937 9.683-4.544 20.72-7.313 30.096-2.071z" fill="#fca311"/><path d="M380.582 110.184a4.204 4.204 0 015.14 2.993 4.204 4.204 0 01-8.123 2.176 4.204 4.204 0 012.983-5.169zm-12.49 56.553a4.204 4.204 0 015.139 2.992 4.204 4.204 0 01-2.962 5.131 4.204 4.204 0 01-5.161-2.954 4.204 4.204 0 012.984-5.17zm2.005-46.761c7.1-.124 9.246 4.114 13.613 9.263a19.153 19.153 0 014.246 15.849c-.413 6.803-2.555 11.499-7.157 14.828-7.1.124-9.246-4.114-13.612-9.263a19.153 19.153 0 01-4.247-15.849c.413-6.803 2.555-11.499 7.157-14.828z" fill="#fec872"/><path d="M368.129 133.413a19.16 19.16 0 004.247 15.851c3.216 4.718 6.057 7.444 11.117 8.206-.74.555-1.76 2.367-2.69 2.447-7.343-.04-10.006-4.633-13.618-9.263a19.16 19.16 0 01-4.247-15.851c.317-6.126 2.117-11.29 6.369-14.132.704-.969 2.615-.928 2.27-.268-2.463 3.862-2.634 8.522-3.448 13.01zm-26.435 44.483a19.16 19.16 0 004.247 15.851c3.217 4.718 6.057 7.444 11.117 8.205-.74.556-1.76 2.368-2.69 2.448-7.343-.04-10.006-4.633-13.618-9.263a19.16 19.16 0 01-4.247-15.851c.317-6.127 2.118-11.29 6.37-14.132.703-.969 2.614-.929 2.27-.268-2.464 3.862-2.635 8.522-3.45 13.01zm-23.757 41.194a19.16 19.16 0 004.248 15.852c3.216 4.717 6.057 7.443 11.116 8.205-.74.556-1.76 2.367-2.69 2.448-7.343-.041-10.005-4.634-13.617-9.263a19.16 19.16 0 01-4.248-15.852c.318-6.126 2.118-11.29 6.37-14.132.703-.969 2.614-.928 2.27-.268-2.463 3.862-2.634 8.522-3.449 13.01zm-26.301 47.63a19.16 19.16 0 004.247 15.851c3.216 4.718 6.057 7.444 11.117 8.206-.74.555-1.76 2.367-2.69 2.447-7.343-.04-10.006-4.633-13.618-9.263a19.16 19.16 0 01-4.247-15.851c.317-6.126 2.117-11.29 6.369-14.132.704-.969 2.615-.928 2.27-.268-2.463 3.862-2.634 8.522-3.448 13.01z" fill="#ca7d02"/><path d="M151.408 202.05c11.552 13.314 36.989 10.162 56.838-7.05 19.857-17.22 26.586-41.965 15.041-55.278-11.544-13.321-37.005-10.162-56.846 7.05-19.857 17.22-26.578 41.966-15.033 55.279" fill="#ce6f3d"/><path d="M223.318 147.953c-4.309-2.677-7.669-7.524-12.396-8.787-4.872-1.302-10.194 1.27-15.114 1.528-4.984.241-10.548-1.745-15.186.12-4.526 1.825-7.163 7.075-10.974 10.476-3.827 3.4-9.35 5.394-11.69 9.679-2.395 4.381-1.068 10.154-1.912 15.066-.82 4.863-3.988 9.84-3.28 14.832.707 4.84 5.129 8.747 7.283 13.345" fill="#8dc440"/><path d="M165.308 197.574c-9.346-7.193-7.448-16.958-3.557-20.431a9.611 9.611 0 017.026-2.403c-.233-5.081 1.745-10.21 5.829-13.844.145-.129.29-.225.426-.346a16.491 16.491 0 015.402-10.218 16.554 16.554 0 0119.504-1.833c.185-.177.362-.362.546-.53 6.311-5.628 15.999-5.065 21.634 1.27" fill="#935223"/><path d="M187.392 199.009l27.872-24.786c-6.962-7.846-18.868-8.658-26.57-1.816-7.694 6.849-8.272 18.755-1.302 26.602" fill="#ea1f26"/><path d="M201.406 177.623l27.888-24.793c-6.986-7.846-18.876-8.65-26.586-1.817-7.685 6.85-8.272 18.756-1.302 26.61m-36.907 32.809l27.88-24.785c-6.97-7.847-18.852-8.659-26.562-1.817s-8.288 18.755-1.318 26.602" fill="#ea1f26"/><path d="M149.7 195.323s65.448-38.187 111.047 16.818c45.591 55.013-1.849 100.17-1.849 100.17s-3.368 3.794-7.17.418c-3.795-3.385-101.714-112.221-101.714-112.221s-4.687-2.926-.314-5.185" fill="#f2985a"/><path d="M216.291 139.06s-25.725 43.798-3.03 73.318c25.163 32.72 55.358 62.554 113.33 42.005 0 0 4.679-2.267-.45-7.975-5.137-5.707-103.868-107.694-103.868-107.694s-2.3-3.883-5.982.345" fill="#fcbe7b"/><path d="M223.522 178.832c2.5 2.814 6.825 3.04 9.663.515 2.838-2.516 3.12-6.85.627-9.655-2.508-2.814-6.841-3.047-9.671-.515-2.846 2.516-3.12 6.842-.619 9.655m-2.191 24.346c2.187 2.452 6.207 2.452 8.972 0 2.766-2.468 3.24-6.456 1.053-8.908-2.178-2.468-6.206-2.468-8.972 0-2.773 2.452-3.231 6.448-1.053 8.908" fill="#f39a59"/><path d="M270.211 197.93l2.87-2.75c-20.678-21.634-38.082-38.564-38.878-37.8-.788.755 15.331 18.916 36.008 40.55" fill="#f7d7b6"/><path d="M282.948 264.954l12.974 8.502 75.83-47.125c-3.571-3.227-6.492-7.467-9.325-10.814z" fill="#ca7d02"/><path d="M257.04 151.28l-11.444 78.743c4.185-.002 6.69-.023 10.95-.023h82.6l23.284-14.48c-12.19-14.385-26.08-26.69-41.457-36.75-17.946-11.742-37.89-20.447-59.448-25.815-1.491-.37-3-.967-4.486-1.676z" fill="#fca311"/><path d="M260.674 151.478l-21.521 122.876c-.766 5.055.101 11.295 3.354 16.372 3.985-27.653 8.028-55.351 12.048-83.018 3.234-22.252 23.38-35.05 44.022-26.153 9.38 4.043 18.177 8.456 25.77 13.354 11.062 7.238 21.317 15.67 30.762 25.17l7.321-4.56c-12.19-14.384-26.08-26.688-41.457-36.748-21.428-14.23-37.867-21.499-60.3-27.293z" fill="#db8d11"/><path d="M355.105 220.073c2.686 2.27 7.658 7.78 9.837 10.49l6.81-4.231c-2.867-3.638-5.864-7.928-9.325-10.815z" fill="#ba7302"/><path d="M247.834 134.715c-1.304 4.624-.777 8.876 2.414 11.946 3.192 3.07 7.332 5.317 11.279 6.3 21.557 5.367 41.501 14.066 59.448 25.808 17.946 11.742 33.887 26.52 47.438 44.123 5.57 6.46 14.551 13.335 23.046 6.98 16.287-16.786 6.882-22.837-.942-33.797-11.166-12.582-28.216-32.649-50.125-46.984-21.91-14.334-46.71-24.26-73.65-29.29-11.85-1.668-16.276 6.553-18.908 14.914z" fill="#e05e10"/><path d="M247.044 220.07l-5.888 40.514c10.831 7.166 24.713 4.94 32.47-6.178 6.899-10.546 3.918-24.788-6.628-31.688-6.02-3.743-13.055-4.655-19.954-2.647zm7.721-53.129l-3.59 33.074 1.128 1.05c.033.032.065.063.098.092 1.02.867 1.722 2.755 3.61 3.815.571-1.013 1.243-.97.018.012 10.448 6.162 22.623 3.71 29.325-6.534 6.9-10.546 4.636-24.319-5.91-31.219a2.937 2.937 0 00-.037-.024l-.018-.012c-6.202-3.907-15.652-4.844-23.257-.999-.025.018-.06.03-.084.048zm78.522 39.611c-10.546-6.9-22.891-6.778-29.79 3.768-7.554 14.331-1.988 27.608 11.943 34.426l29.99-18.65c.856-8.796-5.399-15.292-12.143-19.544z" fill="#c00f0c"/><path d="M247.044 220.07l-5.888 40.514c1.687 1.104 3.694 1.995 5.324 2.707l6.424-44.223c-2.158.182-3.785.543-5.86 1.003zm7.88-14.217c3.378-17.507 17.415-28.609 33.577-26.928-1.591-4.64-4.649-8.81-9.056-11.693a2.937 2.937 0 00-.037-.024l-.019-.012c-7.689-4.361-16.257-4.867-24.624-.255-1.684 11.565-3.365 23.13-5.048 34.696 1.633 1.642 3.666 3.08 5.207 4.216z" fill="#a80f0c"/><path d="M396.89 204.553c-15.398-22.671-34.408-41.403-56.317-55.737-21.91-14.335-46.706-24.264-73.647-29.294-4.843-.552-8.181-2.437-13.11 2.269-6.763 6.359-8.672 15.01-3.151 25.217 4.539-13.332 13.402-15.615 21.45-14.122 26.94 5.03 51.737 14.959 73.646 29.293 21.21 13.878 39.672 31.912 54.802 53.616 1.5-5.35-1.413-7.277-3.672-11.242z" fill="#c75410"/><path d="M86.271 230.337c0-.213-.274 4.479-.274 9.631v9.294l-39.96.096-39.959.145 15.249 21.333c8.367 11.75 15.249 21.622 15.288 21.91.039.338-6.843 10.21-15.288 22.007L6 336.183l46.723.144c25.689.048 46.763 0 46.841-.096.078-.096-.117-3.9-.43-8.427-.352-4.575-.625-8.716-.625-9.198 0-.963 1.564-.963 157.57-.963 128.753 0 157.569.096 157.569.626 0 .337-.274 4.382-.587 8.957-.352 4.623-.547 8.427-.469 8.523.078.097 21.114.145 46.763.097L506 335.7l-15.288-21.43c-8.406-11.797-15.21-21.669-15.131-22.006.117-.289 6.92-10.016 15.17-21.574 8.25-11.509 15.053-21.188 15.093-21.429.078-.337-14.193-.481-39.569-.481h-39.724V230H256.547c-93.525 0-170.276.563-170.276.337z" fill="#191919"/><g fill="#e6e6e6"><path d="M133.106 251.602q-4.368.138-6.725 3.328-2.288 3.189-2.288 11.023 0 2.566.485 3.606.486.97.486 1.11-3.744 0-5.616-1.526-1.803-1.595-1.803-5.2 0-4.923 2.427-8.944 2.426-4.09 7.696-6.587 5.338-2.496 13.52-2.496 1.664 0 4.437.347 4.992.485 7.072.485 3.674 0 6.24-.832-.208.624-.763 2.774-.555 2.08-2.01 3.605-1.387 1.456-3.814 1.941-4.09 0-9.706-1.317l-2.912 13.797h10.122l-1.11 5.13h-10.122l-5.616 26.07h-9.984zm25.861 46.591q-5.13 0-8.112-2.634-2.98-2.635-2.98-8.32 0-4.715 1.94-10.47 1.942-5.754 6.24-9.914 4.3-4.23 10.816-4.23 8.875 0 8.875 11.094v.07q.208.068.763.068 2.288 0 5.269-1.178 2.981-1.248 5.408-2.982l.624 1.872q-2.01 2.15-5.27 3.675-3.189 1.456-7.002 2.08-.555 6.31-2.843 11.024-2.288 4.715-5.893 7.28-3.605 2.565-7.835 2.565zm2.774-6.24q1.664 0 3.328-1.872 1.664-1.941 2.912-5.2 1.248-3.328 1.802-7.349-1.872-.416-1.872-2.912 0-2.843 2.15-3.744-.139-2.288-.694-3.12-.554-.901-1.94-.901-2.289 0-4.438 3.328-2.15 3.328-3.467 7.973-1.317 4.645-1.317 8.181 0 3.328.762 4.507.763 1.11 2.774 1.11z"/><path d="M189.405 298.193q-5.131 0-8.112-2.634-2.982-2.635-2.982-8.32 0-4.715 1.942-10.47 1.94-5.754 6.24-9.914 4.298-4.23 10.816-4.23 8.874 0 8.874 11.094v.07q.208.068.763.068 2.288 0 5.27-1.178 2.98-1.248 5.407-2.982l.624 1.872q-2.01 2.15-5.27 3.675-3.189 1.456-7.002 2.08-.555 6.31-2.842 11.024-2.288 4.715-5.894 7.28-3.605 2.565-7.834 2.565zm2.773-6.24q1.664 0 3.328-1.872 1.664-1.941 2.912-5.2 1.248-3.328 1.803-7.349-1.872-.416-1.872-2.912 0-2.843 2.149-3.744-.139-2.288-.693-3.12-.555-.901-1.942-.901-2.288 0-4.437 3.328-2.15 3.328-3.467 7.973-1.317 4.645-1.317 8.181 0 3.328.763 4.507.762 1.11 2.773 1.11z"/><path d="M218.04 298.332q-3.953 0-6.588-2.704-2.634-2.704-2.634-8.459 0-5.13 2.01-10.746 2.08-5.686 6.102-9.568 4.09-3.952 9.706-3.952 2.843 0 4.23.97t1.386 2.566v.277l3.398-15.946 10.26-1.387-7.972 37.44q-.278 1.04-.278 2.01 0 2.774 2.843 2.774 1.248 0 2.219-.416-.278 3.466-2.496 5.338-2.15 1.803-5.131 1.803-2.773 0-4.715-1.387-1.872-1.456-2.496-4.368-4.16 5.755-9.845 5.755zm4.506-6.725q1.525 0 3.05-1.318 1.595-1.317 2.358-3.674l.277-1.11 3.397-15.877q-.624-2.427-2.842-2.427-2.774 0-4.992 3.26-2.219 3.188-3.467 7.764-1.248 4.507-1.248 7.974t.97 4.437q1.04.97 2.497.97zm42.431-41.323q-5.269 1.734-8.18 5.755-2.843 3.952-2.843 9.845 0 2.635.485 3.605.485.971.485 1.18-7.418 0-7.418-6.31 0-4.299 3.258-8.597 3.328-4.368 8.459-7.072 5.2-2.774 10.33-2.774 2.566 0 5.27.97l-1.595 36.54 15.253-36.54h9.984l-7.28 51.03h-9.984l4.438-31.13-13.035 31.13h-9.499l1.387-31.27-11.578 31.27h-5.547zm42.433 47.909q-5.131 0-8.113-2.634-2.981-2.635-2.981-8.32 0-4.715 1.941-10.47t6.24-9.914q4.299-4.23 10.816-4.23 8.875 0 8.875 11.094v.07q.208.068.762.068 2.288 0 5.27-1.178 2.981-1.248 5.408-2.982l.624 1.872q-2.01 2.15-5.27 3.675-3.189 1.456-7.002 2.08-.555 6.31-2.843 11.024-2.288 4.715-5.893 7.28-3.605 2.565-7.835 2.565zm2.773-6.24q1.664 0 3.327-1.872 1.664-1.941 2.912-5.2 1.248-3.328 1.803-7.349-1.872-.416-1.872-2.912 0-2.843 2.15-3.744-.14-2.288-.694-3.12-.555-.901-1.941-.901-2.288 0-4.437 3.328-2.15 3.328-3.467 7.973t-1.317 8.181q0 3.328.762 4.507.763 1.11 2.774 1.11z"/><path d="M337.846 298.193q-5.13 0-8.112-2.634-2.981-2.635-2.981-8.32 0-4.715 1.941-10.47 1.942-5.754 6.24-9.914 4.299-4.23 10.816-4.23 8.875 0 8.875 11.094v.07q.208.068.763.068 2.288 0 5.269-1.178 2.981-1.248 5.408-2.982l.624 1.872q-2.01 2.15-5.27 3.675-3.189 1.456-7.002 2.08-.555 6.31-2.843 11.024-2.288 4.715-5.893 7.28-3.605 2.565-7.835 2.565zm2.774-6.24q1.664 0 3.328-1.872 1.664-1.941 2.912-5.2 1.248-3.328 1.802-7.349-1.872-.416-1.872-2.912 0-2.843 2.15-3.744-.14-2.288-.694-3.12-.554-.901-1.941-.901-2.288 0-4.437 3.328-2.15 3.328-3.467 7.973-1.317 4.645-1.317 8.181 0 3.328.762 4.507.763 1.11 2.774 1.11z"/><path d="M366.48 298.332q-3.951 0-6.586-2.704-2.635-2.704-2.635-8.459 0-5.13 2.011-10.746 2.08-5.686 6.101-9.568 4.091-3.952 9.707-3.952 2.843 0 4.23.97t1.386 2.566v.277l3.397-15.946 10.262-1.387-7.974 37.44q-.277 1.04-.277 2.01 0 2.774 2.843 2.774 1.248 0 2.218-.416-.277 3.466-2.496 5.338-2.149 1.803-5.13 1.803-2.774 0-4.715-1.387-1.872-1.456-2.496-4.368-4.16 5.755-9.845 5.755zm4.507-6.725q1.526 0 3.051-1.318 1.595-1.317 2.357-3.674l.278-1.11 3.397-15.877q-.624-2.427-2.843-2.427-2.773 0-4.992 3.26-2.218 3.188-3.466 7.764-1.248 4.507-1.248 7.974t.97 4.437q1.04.97 2.496.97z"/></g></svg>