<svg viewBox="0 0 32 32" preserveAspectRatio="none" xmlns="http://www.w3.org/2000/svg"><path d="M30.433 9.056l.13.305A15.918 15.918 0 0132 16c0 8.816-7.184 16-16 16v-2.917c7.227 0 13.083-5.878 13.083-13.083 0-1.72-.327-3.418-1.001-5.007l-.087-.218.217-.087a5.08 5.08 0 002.003-1.371zm-3.962.305a3.33 3.33 0 100-6.662 3.33 3.33 0 000 6.662zM16 8.708v14.585a7.293 7.293 0 000-14.585zM16 0c2.59 0 5.05.61 7.314 1.741l.305.153-.262.217a4.97 4.97 0 00-1.48 1.938l-.087.217-.196-.087A13.058 13.058 0 0016 2.917" fill="#478aff"/><path d="M0 5.312l2.44 19.696L16 32V0z" fill="#d03"/><path d="M16 3.536L5.998 24.416h3.73l2.01-4.672H16v-2.88h-2.922L16 10.32V3.552z" fill="#FFF"/></svg>