<svg viewBox="0 0 435.5 147" preserveAspectRatio="none" xmlns="http://www.w3.org/2000/svg"><g fill="#478aff"><path d="M73.5 40l.009 67A33.5 33.5 0 00107 73.5c-.022-18.492-15.008-33.478-33.5-33.5z"/><circle cx="121.6" cy="27.71" r="15.26"/><path d="M140.39 43.05l-.64-1.4-1 1.16a23 23 0 01-9.21 6.34l-1 .36.4 1c11.12 26.742 1.582 57.61-22.68 73.417a59.9 59.9 0 01-32.762 9.737v13.31c17.25 0 34.41-6.058 48.127-17.938 24.656-21.351 32.293-56.4 18.755-86.076zM73.484 13.486A59.923 59.923 0 0199.23 19.3l.94.45.41-1a23 23 0 016.78-8.89l1.2-1-1.37-.71a72.68 72.68 0 00-33.7-8.19M184.83 41.5h15.5v64h-15.5zm167.27 0h15.5v64h-15.5zM316.31 40c-10.9 0-19.32 6.57-21.25 8.38l-1-6.88h-12.9v64h15.5V66.75c0-7.56 10.32-13.82 17.87-13.82s13.22 7.22 13.22 15.82v36.75h15.5V70.28C343.2 53.5 335.96 40 316.31 40zm91.98 53.87c-11.65 0-19.35-9.12-19.35-20.37s7.7-20.37 19.35-20.37c9.94 0 16 9.63 16 9.63l11.23-7.51c-3.25-5-7-8-12.12-11.1A28.62 28.62 0 00408.75 40c-19.39 0-34.2 14.56-34.29 33.5.09 18.94 14.9 33.5 34.29 33.5a28.62 28.62 0 0014.59-4.15c5.12-3.09 8.87-6.1 12.12-11.1l-11.23-7.51s-6 9.63-15.94 9.63zM240.75 40a33 33 0 00-33.53 33.23c0 18.15 13.58 33.77 33.76 33.77 18.27 0 33.24-14 33.24-33.38 0-22.19-17.41-33.62-33.47-33.62zm.19 13.16c9.61 0 18.71 7.8 18.71 20.37 0 12.3-9.06 20.32-18.75 20.32-10.65 0-19-8.56-19-20.42 0-11.6 8.29-20.27 19.09-20.27z"/></g><path d="M73.497 0L0 24.398l11.21 90.462 62.287 32.114z" fill="#d03"/><path d="M73.497 16.24l-45.945 95.901h17.13l9.237-21.458h19.5zm0 61.215h-13.42L73.496 47.4z" fill="#fff"/></svg>